<svg xmlns="http://www.w3.org/2000/svg" viewBox="0 0 500 500"><g id="freepik--background-complete--inject-24"><rect y="382.4" width="500" height="0.25" style="fill:#ebebeb"></rect><rect x="359" y="391.92" width="90.9" height="0.25" style="fill:#ebebeb"></rect><rect x="306.33" y="389.21" width="24.89" height="0.25" style="fill:#ebebeb"></rect><rect x="349.52" y="401.21" width="38.59" height="0.25" style="fill:#ebebeb"></rect><rect x="52.46" y="399.53" width="22.64" height="0.25" style="fill:#ebebeb"></rect><rect x="84" y="399.53" width="26.89" height="0.25" style="fill:#ebebeb"></rect><rect x="178.31" y="395.31" width="46.84" height="0.25" style="fill:#ebebeb"></rect><path d="M237,337.8H43.91a5.71,5.71,0,0,1-5.7-5.71V60.66A5.71,5.71,0,0,1,43.91,55H237a5.71,5.71,0,0,1,5.71,5.71V332.09A5.71,5.71,0,0,1,237,337.8ZM43.91,55.2a5.46,5.46,0,0,0-5.45,5.46V332.09a5.46,5.46,0,0,0,5.45,5.46H237a5.47,5.47,0,0,0,5.46-5.46V60.66A5.47,5.47,0,0,0,237,55.2Z" style="fill:#ebebeb"></path><path d="M453.31,337.8H260.21a5.72,5.72,0,0,1-5.71-5.71V60.66A5.72,5.72,0,0,1,260.21,55h193.1A5.71,5.71,0,0,1,459,60.66V332.09A5.71,5.71,0,0,1,453.31,337.8ZM260.21,55.2a5.47,5.47,0,0,0-5.46,5.46V332.09a5.47,5.47,0,0,0,5.46,5.46h193.1a5.47,5.47,0,0,0,5.46-5.46V60.66a5.47,5.47,0,0,0-5.46-5.46Z" style="fill:#ebebeb"></path><rect x="59.68" y="70.08" width="316.11" height="226.93" style="fill:#fafafa"></rect><polygon points="357.8 297.01 277.4 70.08 217.06 70.08 297.46 297.01 357.8 297.01" style="fill:#fff"></polygon><polygon points="195.55 297.01 115.15 70.08 93.14 70.08 173.54 297.01 195.55 297.01" style="fill:#fff"></polygon><rect x="215.86" y="69.6" width="3.75" height="227.9" style="fill:#f0f0f0"></rect><rect x="213.99" y="69.6" width="1.87" height="227.9" style="fill:#e0e0e0"></rect><rect x="215.86" y="23.31" width="3.75" height="320.48" transform="translate(34.19 401.28) rotate(-90)" style="fill:#f0f0f0"></rect><path d="M57.5,295.45h0V67.9H378V295.45h0v3.75H57.5Zm316.73,0V71.65h-313v223.8Z" style="fill:#f0f0f0"></path><rect x="55.62" y="67.9" width="1.87" height="231.3" style="fill:#e0e0e0"></rect><rect x="407.81" y="107.13" width="39.66" height="39.66" transform="translate(855.28 253.91) rotate(180)" style="fill:#ebebeb"></rect><rect x="406.05" y="107.13" width="1.76" height="39.66" style="fill:#e0e0e0"></rect><rect x="413.18" y="112.5" width="28.91" height="28.91" transform="translate(855.28 253.91) rotate(180)" style="fill:#fff"></rect><rect x="420.8" y="120.11" width="13.68" height="13.68" transform="translate(819.8 -85.66) rotate(135)" style="fill:#f5f5f5"></rect><rect x="394.14" y="159.27" width="39.66" height="39.66" transform="translate(827.94 358.21) rotate(180)" style="fill:#ebebeb"></rect><rect x="392.38" y="159.27" width="1.76" height="39.66" style="fill:#e0e0e0"></rect><rect x="399.52" y="164.65" width="28.91" height="28.91" transform="translate(827.94 358.21) rotate(180)" style="fill:#fff"></rect><rect x="407.81" y="172.94" width="12.33" height="12.33" rx="4.11" transform="translate(827.94 358.21) rotate(180)" style="fill:#f5f5f5"></rect><path d="M341.62,253.58a1.08,1.08,0,0,0-1.07-.87H299.07a1.09,1.09,0,0,0-1.07.87L283.3,382.4h2.23L300,254.89h39.69L354.1,382.4h2.23Z" style="fill:#f0f0f0"></path><path d="M421.91,253.58a1.08,1.08,0,0,0-1.07-.87H379.37a1.08,1.08,0,0,0-1.07.87L363.59,382.4h2.23l14.44-127.51H420L434.39,382.4h2.23Z" style="fill:#f0f0f0"></path><path d="M423.1,244.42H292.67c-6.24,0-11.29,3-11.29,6.71v.23c0,1.35,1.84,2.44,4.12,2.44H430.27c2.27,0,4.11-1.09,4.11-2.44v-.23C434.38,247.42,429.33,244.42,423.1,244.42Z" style="fill:#e0e0e0"></path><path d="M382.36,220.77a23.66,23.66,0,0,0,47.32,0Z" style="fill:#e6e6e6"></path><path d="M363,226.19a18.24,18.24,0,0,0,36.47,0Z" style="fill:#ebebeb"></path><path d="M296.2,226.19a18.24,18.24,0,0,0,36.47,0Z" style="fill:#ebebeb"></path></g><g id="freepik--Shadow--inject-24"><ellipse id="freepik--path--inject-24" cx="250" cy="416.24" rx="193.89" ry="11.32" style="fill:#f5f5f5"></ellipse></g><g id="freepik--Sculpture--inject-24"><path d="M88.32,169.64l-.92-.21a60,60,0,0,1,17-30.2l.65.68A58.94,58.94,0,0,0,88.32,169.64Z" style="fill:#263238"></path><path d="M86.85,182.52h-.94c0-1.72.1-3.45.26-5.15l.94.09C87,179.12,86.87,180.83,86.85,182.52Z" style="fill:#263238"></path><path d="M269.37,141.61a58.1,58.1,0,0,0-81.36.79,58.1,58.1,0,0,0-81.36-.79c-23.47,22.59-23,60.74,0,83.77L174.31,293a19.38,19.38,0,0,0,27.41,0l67.65-67.66C292.41,202.35,292.85,164.2,269.37,141.61Z" style="fill:#263238"></path><polygon points="242.16 317.11 133.86 317.11 133.86 411.95 242.16 411.95 242.16 369.39 241.65 363.63 243.01 354.41 242.16 317.11" style="fill:#263238"></polygon><polygon points="154.26 317.11 133.86 317.11 133.86 411.95 154.26 411.95 154.26 401.76 153.02 397.15 154.26 383.64 154.26 354.18 156.94 350.56 154.26 343.64 154.26 317.11" style="opacity:0.2"></polygon><polygon points="263.73 415.42 265.85 413.25 268.58 412.58 271.17 413.43 272.72 415.42 263.73 415.42" style="fill:#263238"></polygon><polygon points="265.85 413.25 263.73 415.42 268.58 412.58 265.85 413.25" style="opacity:0.2"></polygon><polygon points="133.4 415.42 138.02 410.69 143.98 409.24 149.63 411.08 153.02 415.42 133.4 415.42" style="fill:#263238"></polygon><polygon points="138.02 410.69 133.4 415.42 143.98 409.24 138.02 410.69" style="opacity:0.2"></polygon><polygon points="250.34 409.14 256.78 410.21 260.51 414 246.36 414 250.34 409.14" style="fill:#263238"></polygon><polygon points="256.78 410.21 260.51 414 253.43 411.39 250.34 409.14 256.78 410.21" style="opacity:0.2"></polygon><polygon points="159.18 317.11 166.21 295.31 155.69 274.42 187.31 294.96 210.37 284.38 203.66 306.56 217.37 317.11 159.18 317.11" style="fill:#263238"></polygon><polygon points="155.69 274.42 166.21 295.31 185.2 288.63 155.69 274.42" style="opacity:0.2"></polygon><polygon points="203.66 306.56 193.11 310.52 178.39 304.2 203.66 306.56" style="opacity:0.2"></polygon><polygon points="110.13 228.86 166.91 246.26 192.93 244.86 164.81 255.58 134.48 253.21 110.13 228.86" style="opacity:0.2"></polygon><polygon points="198.74 257.69 223 258.57 248.14 246.62 222.47 272.28 198.74 257.69" style="opacity:0.2"></polygon><polygon points="138.01 166.41 162.19 164.23 185.63 149.21 171.9 172.78 138.01 166.41" style="opacity:0.2"></polygon><polygon points="185.2 259.45 202.31 264.96 191.65 266.36 185.2 259.45" style="opacity:0.2"></polygon><polygon points="209.59 225.05 229.95 226.83 241.49 215.48 209.59 225.05" style="opacity:0.2"></polygon><polygon points="223.58 317.11 226.68 313.95 230.66 312.98 234.44 314.21 236.71 317.11 223.58 317.11" style="fill:#263238"></polygon><polygon points="226.68 313.95 223.58 317.11 230.66 312.98 226.68 313.95" style="opacity:0.2"></polygon><polygon points="143.06 312.8 148.78 313.75 152.09 317.11 139.53 317.11 143.06 312.8" style="fill:#263238"></polygon><polygon points="148.78 313.75 152.09 317.11 145.81 314.8 143.06 312.8 148.78 313.75" style="opacity:0.2"></polygon></g><g id="freepik--Character--inject-24"><path d="M372,207.15l-4,4.32a16.89,16.89,0,0,0-3.63,6.2l-1,3.09a3.82,3.82,0,0,0,2.52,4.83l4.49,1.35a3.81,3.81,0,0,0,4.52-2l2.43-4.95s5.64-5.58,2.58-11.28a2,2,0,0,0-1.21-.88l-4.35-1.35A2.28,2.28,0,0,0,372,207.15Z" style="fill:#ff8b7b"></path><path d="M388.05,225.27a.91.91,0,0,0,1.09-.68l.72-3.13a.9.9,0,0,0-1.68-.61l-33.24-6.71-.38,1.63,32.8,8.62A.91.91,0,0,0,388.05,225.27Z" style="fill:#263238"></path><path d="M376.83,144.69c3.23,5,6.11,9.93,8.91,15.1,1.39,2.58,2.72,5.21,4,7.89s2.53,5.44,3.7,8.43c.59,1.5,1.13,3.07,1.66,4.92a26.68,26.68,0,0,1,.71,3.36c.05.33.09.76.12,1.19,0,.2,0,.44,0,.67v.55c0,.56-.06,1.11-.14,1.68a24.4,24.4,0,0,1-1.51,5.91,33.2,33.2,0,0,1-2.22,4.76,52.67,52.67,0,0,1-5.46,7.89c-1,1.2-2,2.35-3.1,3.45s-2.17,2.12-3.43,3.21a4.87,4.87,0,0,1-7.72-5.45l.14-.34a147.81,147.81,0,0,0,5.37-14.82c.28-1.16.54-2.27.68-3.27a9.83,9.83,0,0,0,.08-2.48,4,4,0,0,0-.07-.46v0s0,.11,0,.14,0,.14,0,.12a4.64,4.64,0,0,1-.33-.78c-.35-.86-.87-1.94-1.42-3.06-1.09-2.24-2.4-4.6-3.74-6.95s-2.72-4.75-4.13-7.14l-8.48-14.35v0a9.64,9.64,0,0,1,16.37-10.16Z" style="fill:#263238"></path><path d="M326.7,138.15c-.94,3.59-.14,15.29.26,19.57a70.91,70.91,0,0,0-16.94-.5s.09,20.91,4.07,39.07c-3.34,27.65-4.57,119.27-3.9,146.31,44,17.65,68,3.12,68,3.12s-7.58-139.37-11.2-153c-.67-14.05,4.12-23.29,3.25-33.52l-7.84-3.47s-.78-7.65,6.28-17.64c-2.09-.54-4.69-1.06-4.69-1.06s-5.85,5.83-7.21,16.89c-2.69-1.46-16.48-1.11-25.28,2.74-.83-4.66-1.13-16.91-.19-19.62A16.89,16.89,0,0,0,326.7,138.15Z" style="fill:#263238"></path><path d="M371.56,413.14s9.86-3.77,10.92-6.3h8.91l.49,9.4h-7.27l-.9-.87-1.34.87c-4.44,0-8.54-.17-11.39-1.18A2,2,0,0,1,371.56,413.14Z" style="fill:#263238"></path><path d="M382.53,309.76c-5.77-41.3-4.64-68.89-10.69-89.25L335.09,220s16.62,65.52,24.24,92.8,21.32,94.65,21.32,94.65h11.73S392.69,341.71,382.53,309.76Z" style="fill:#263238"></path><path d="M382.53,309.76c-5.77-41.3-4.64-68.89-10.69-89.25L335.09,220s16.62,65.52,24.24,92.8,21.32,94.65,21.32,94.65h11.73S392.69,341.71,382.53,309.76Z" style="fill:#fff;opacity:0.4"></path><path d="M351.94,250.53c2.56,5.9,7.53,43.78,7.51,62.69l-.12-.43c-2.67-9.59-6.47-23.9-10.26-38.44Z" style="fill:#263238;opacity:0.4"></path><path d="M314.43,413.14s15.78-3.77,16.84-6.3h8.91l.49,9.4h-5.49l-.89-.87-1.34.87c-4.45,0-16.26-.17-19.11-1.18A2,2,0,0,1,314.43,413.14Z" style="fill:#263238"></path><path d="M349.3,310.92c7-41.07,9.86-90.59,9.86-90.59l-38.32-.61s4.4,66.74,5.94,94.69c1.59,29.07,2.7,93,2.7,93h12.8S353.16,346.86,349.3,310.92Z" style="fill:#263238"></path><path d="M349.3,310.92c7-41.07,9.86-90.59,9.86-90.59l-38.32-.61s4.4,66.74,5.94,94.69c1.59,29.07,2.7,93,2.7,93h12.8S353.16,346.86,349.3,310.92Z" style="fill:#fff;opacity:0.4"></path><path d="M353.78,115.47c.17,8.34,2.22,16.79,5.56,22-3.7,3.45-10.93,8-18.93,7.87s-6.54-5.53-4.39-8.31c5.73-2.9,6-5.82,4.55-8.39Z" style="fill:#ff8b7b"></path><path d="M365.57,139.5s-4.86-4.27-6.87-5.27-17.51-.67-21.12,0-8,6-8,6Z" style="fill:#263238"></path><path d="M327.74,114.47c.16.72-.09,1.39-.56,1.49s-1-.4-1.15-1.12.09-1.39.56-1.49S327.58,113.75,327.74,114.47Z" style="fill:#263238"></path><path d="M328,115.47s-.71,4.53-2.07,6.93c1.55.91,3.61-.1,3.61-.1Z" style="fill:#ff5652"></path><path d="M325.24,110.31a.43.43,0,0,0,.41,0,3.45,3.45,0,0,1,3.13.11.43.43,0,0,0,.6-.13.44.44,0,0,0-.13-.6,4.29,4.29,0,0,0-3.95-.18.44.44,0,0,0-.22.58A.42.42,0,0,0,325.24,110.31Z" style="fill:#263238"></path><path d="M351.73,107.11c1.45,9,2.75,14.19-.72,19.71-5.23,8.31-17.13,6.61-21.24-1.79-3.71-7.56-5.45-21,2.47-26.41A12.55,12.55,0,0,1,351.73,107.11Z" style="fill:#ff8b7b"></path><path d="M332.1,120.88c.78-6.46-.48-9.14-2-10.19.88-1.76-.45-4.77,2.19-5.23-4.2-.51-9.44-1-11.41-5.83,4.95.13,6.31-1.09,6.31-1.09s-3.16-1.63-3.79-6.36c3.64,1.5,6.2-.26,8.65.83-1.7-2.76-1-4.86.52-5.57.76,1.72,7,.92,10,4-1.3-4.15,3.85-4.48,3.85-4.48s-1.76,2.22-.5,3.35,7.88,2.1,5.36,5.78c4,0,7.21,1.93,6.62,8.09s2.89,6.36,2.89,6.36-2.22,3-5.19,1.6c3.06,4.2-2.45,7.83,1.34,12.78C349.81,129.44,342.93,126.78,332.1,120.88Z" style="fill:#e0e0e0"></path><path d="M349.72,96.53c3.94-2,3.66-4.31,3.18-6.7C358.56,92.47,353.36,97.75,349.72,96.53Z" style="fill:#e0e0e0"></path><path d="M328.56,122.17c-3.44,3.4-3.52,6.79-2.39,7.55,0-1.51,2.14-1.55,2-2.22.34,2.84,4.25,5.71,8.06,6.09-.83-1.82.66-1.77,1.72-4.31.82-2,1.66-5.09-1.44-10S333.33,121.29,328.56,122.17Z" style="fill:#e0e0e0"></path><path d="M339.77,115.41a7.15,7.15,0,0,1-1.57,5c-1.49,1.75-3.44.41-4-1.92-.54-2.1-.41-5.54,1.57-6.4S339.61,113.09,339.77,115.41Z" style="fill:#ff8b7b"></path><path d="M280,227.35h0a2.73,2.73,0,0,1-3.3-2l-10.09-40.79a2.73,2.73,0,0,1,2-3.3h0a2.73,2.73,0,0,1,3.3,2L282,224.05A2.74,2.74,0,0,1,280,227.35Z" style="fill:#263238"></path><path d="M280,227.35h0a2.73,2.73,0,0,1-3.3-2l-10.09-40.79a2.73,2.73,0,0,1,2-3.3h0a2.73,2.73,0,0,1,3.3,2L282,224.05A2.74,2.74,0,0,1,280,227.35Z" style="fill:#fff;opacity:0.4"></path><path d="M287.49,187l1.2,4.84L261,198.66l-3-12.08,20.63-5.11A9,9,0,0,0,287.49,187Z"></path><path d="M279.11,189l1.2,4.85L261,198.66l-3-12.08,12.25-3A9,9,0,0,0,279.11,189Z" style="fill:#263238"></path><path d="M283.39,203.22l-5.85.33a17,17,0,0,0-6.93,1.93l-.61.33a6.31,6.31,0,0,0-2.57,8.65h0a6.34,6.34,0,0,0,7.66,2.88l3.18-1.15s7.92-.07,9.7-6.28a1.81,1.81,0,0,0-.18-1.36l-2.25-4.13A2.31,2.31,0,0,0,283.39,203.22Z" style="fill:#ff8b7b"></path><path d="M366.48,138.11c-12.4-1.53-30-1.39-41.66.64a13.26,13.26,0,0,0-10.89,12c-1.45,17.81,2.64,50.55,6,81.89,27.47,9.21,55.21-1.73,55.21-1.73.61-6.33-2.79-27-4.92-38.1,1.56-11.42,5.52-24.49,7.76-39.66A13.27,13.27,0,0,0,366.48,138.11Z" style="fill:#263238"></path><path d="M314.66,193.44c9.25,1.44,25.2,3.5,37.6,2.68,9.77-.64,17.16-3.65,18.46-6.26,1.15,2.13-.05,5.14-.05,5.14s-1.49,3.69-18.3,3.3c-7.77,1.9-31.79,1.84-36.93.95A35.3,35.3,0,0,1,314.66,193.44Z" style="fill:#263238"></path><path d="M331.28,137.09c6.2,4.48,34.62,4.59,32.68,0,2.44.43,4.69,1.06,4.69,1.06s-1.42,6-19.52,5.86-22.43-5.85-22.43-5.85S330.17,137.9,331.28,137.09Z" style="fill:#263238"></path><path d="M346.38,211.31a2.3,2.3,0,0,1-2.29-1.25c-1.29-2.75,2.34-8.85,7.62-12.8l.67-.49.13.81c.08.49,1.86,12-4.77,13.56A6.06,6.06,0,0,1,346.38,211.31Zm5.25-12.71c-4.68,3.79-7.54,9.09-6.63,11,.4.84,1.58.75,2.5.53C352.28,209,351.9,201.23,351.63,198.6Z" style="fill:#263238"></path><path d="M360.12,208.71c-6.18,0-8.5-10.48-8.6-10.94l-.17-.81.8.22c6.35,1.76,12,6.12,11.75,9.15,0,.72-.5,2-3,2.33A5.06,5.06,0,0,1,360.12,208.71Zm-7.4-10.31c.7,2.54,3.17,9.93,8,9.26.94-.12,2.08-.47,2.14-1.4C363,204.13,358.45,200.22,352.72,198.4Z" style="fill:#263238"></path><path d="M348.35,219.4c-.56-7.23.11-19.26,3.33-22.11l.67.75c-2.84,2.52-3.57,14-3,21.28Z" style="fill:#263238"></path><path d="M361,216.22l-1-.08c.55-7-5.26-15.37-8.34-18.1l.67-.75C355.56,200.13,361.6,208.88,361,216.22Z" style="fill:#263238"></path><path d="M322,165.45l-7.63,12c.63,8.95,1.62,18.83,2.71,29.07C321.51,195.87,325.08,175.24,322,165.45Z" style="opacity:0.2"></path><path d="M333.18,152.58c-.25,1.75-.49,3.3-.79,4.92s-.6,3.2-.94,4.8c-.65,3.19-1.46,6.37-2.31,9.55s-1.85,6.37-3,9.59a71.59,71.59,0,0,1-4.37,9.83l-.74,1.29-.83,1.31a29.6,29.6,0,0,1-2,2.68c-.38.48-.66.75-1,1.11s-.64.69-1,1c-.68.72-1.4,1.37-2.12,2a48.74,48.74,0,0,1-9.07,6.21c-1.56.85-3.15,1.59-4.74,2.27s-3.2,1.29-4.83,1.82-3.26,1-4.91,1.4c-.82.21-1.66.38-2.5.55s-1.65.27-2.63.43a4.81,4.81,0,0,1-3.31-8.82l.47-.29,3.68-2.3c1.24-.79,2.46-1.61,3.67-2.43s2.36-1.68,3.5-2.53,2.22-1.75,3.28-2.63a45.48,45.48,0,0,0,5.55-5.56c.38-.49.76-1,1.1-1.43s.77-1.1,1-1.48a11,11,0,0,0,.68-1.19l.35-.72.35-.8a68.05,68.05,0,0,0,2.61-7.61c.78-2.73,1.51-5.59,2.16-8.48s1.28-5.82,1.9-8.76l1.73-8.77,0-.23a9.63,9.63,0,0,1,19,3.23Z" style="fill:#263238"></path></g></svg>